 http://www.imdb.com/title/tt2247732/
 
***INFO***
 Format                                   : AVI
 Format/Info                              : Audio Video Interleave
 File size                                : 294 MiB
 Duration                                 : 11mn 20s
 Overall bit rate                         : 3 626 Kbps
 

Video
 ID                                       : 0
 Format                                   : xvid
 Codec ID                                 : xvid
 Duration                                 : 11mn 20s
 Bit rate                                 : 3 296 Kbps
 Width                                    : 1 280 pixels
 Height                                   : 528 pixels
 Display aspect ratio                     : 2.40:1
 Frame rate                               : 24.000 fps
 Bits/(Pixel*Frame)                       : 0.203
 Stream size                              : 267 MiB (91%)
 
Audio
 ID                                       : 1
 Format                                   : AC-3
 Format/Info                              : Audio Coding 3
 Mode extension                           : CM (complete main)
 Format settings, Endianness              : Big
 Codec ID                                 : 2000
 Duration                                 : 11mn 20s
 Bit rate mode                            : Constant
 Bit rate                                 : 320 Kbps
 Channel positions                        : Front: L R
 Sampling rate                            : 48.0 KHz
 Bit depth                                : 16 bits
 Compression mode                         : Lossy
 Stream size                              : 26.0 MiB (9%)
 Alignment                                : Aligned on interleaves
 Interleave, duration                     : 32 ms (0.77 video frame)
 Interleave, preload duration             : 32 ms


 